<?xml version="1.0" standalone="no"?>
<!DOCTYPE svg PUBLIC "-//W3C//DTD SVG 20010904//EN"
 "http://www.w3.org/TR/2001/REC-SVG-20010904/DTD/svg10.dtd">
<svg version="1.0" xmlns="http://www.w3.org/2000/svg"
 width="700.000000pt" height="700.000000pt" viewBox="0 0 700.000000 700.000000"
 preserveAspectRatio="xMidYMid meet">
<metadata>
Created by potrace 1.14, written by Peter Selinger 2001-2017
</metadata>
<g transform="translate(0.000000,700.000000) scale(0.100000,-0.100000)"
fill="#000000" stroke="none">
<path d="M298 6854 c-62 -19 -130 -85 -152 -149 -15 -44 -16 -129 -16 -880 1
-811 1 -831 21 -875 25 -55 62 -95 114 -123 40 -22 41 -22 885 -25 770 -2 849
-1 889 14 61 23 115 75 140 134 21 50 21 50 19 897 -3 953 3 877 -80 955 -73
69 -45 67 -956 67 -675 -1 -825 -3 -864 -15z"/>
<path d="M2616 6850 c-61 -24 -101 -61 -133 -125 l-26 -50 0 -825 c0 -454 3
-841 7 -860 10 -47 61 -121 101 -147 17 -12 50 -26 71 -32 27 -8 301 -11 871
-11 l832 0 53 28 c67 35 113 95 127 164 15 78 13 1656 -3 1701 -20 60 -65 113
-119 143 l-52 29 -840 2 c-803 2 -842 1 -889 -17z"/>
<path d="M4980 6860 c-70 -20 -128 -68 -163 -135 -21 -40 -21 -44 -22 -878 -1
-906 -2 -882 53 -955 14 -18 46 -45 71 -60 l46 -27 844 -3 c943 -3 906 -5 977
66 21 20 46 57 58 82 20 44 20 61 20 875 0 627 -3 841 -13 873 -8 27 -30 61
-59 92 -81 83 -37 80 -970 79 -450 -1 -828 -5 -842 -9z"/>
<path d="M2705 4579 c-83 -6 -141 -33 -183 -85 -63 -77 -62 -54 -59 -969 2
-753 4 -833 19 -865 23 -49 68 -94 119 -122 l44 -23 835 -2 c686 -1 843 1 880
13 63 19 123 73 150 135 l22 53 0 821 c0 452 -3 837 -7 856 -11 50 -29 81 -71
122 -73 71 -46 68 -907 70 -424 1 -803 -1 -842 -4z"/>
<path d="M305 4543 c-50 -13 -118 -71 -148 -128 l-22 -40 0 -860 c0 -796 1
-862 17 -892 26 -46 78 -97 123 -119 39 -18 69 -19 890 -19 l850 0 50 26 c57
29 110 92 125 149 7 26 10 315 8 877 -3 837 -3 838 -25 878 -22 42 -58 78
-108 111 -29 18 -58 19 -885 20 -470 1 -864 0 -875 -3z"/>
<path d="M4956 4534 c-59 -21 -98 -56 -131 -115 l-30 -54 -1 -825 c-2 -690 0
-834 12 -878 17 -61 68 -123 128 -155 l41 -22 840 -1 c955 -2 902 -6 981 80
72 78 69 38 69 962 l0 829 -28 58 c-30 60 -80 103 -146 125 -25 9 -260 12
-865 11 -695 0 -837 -3 -870 -15z"/>
<path d="M315 2228 c-78 -17 -144 -72 -176 -146 -19 -43 -19 -79 -17 -891 3
-808 4 -848 22 -884 26 -52 72 -96 126 -120 44 -20 66 -20 885 -20 l840 0 47
21 c54 25 90 60 121 117 l22 40 0 855 c0 803 -1 857 -18 891 -26 51 -75 99
-127 122 -44 20 -62 21 -867 21 -452 1 -838 -2 -858 -6z"/>
<path d="M2766 2223 c-1 -1 -30 -3 -64 -4 -106 -4 -183 -54 -225 -149 -19 -44
-20 -65 -20 -865 0 -451 3 -837 7 -859 9 -50 45 -105 88 -138 74 -57 51 -55
953 -54 820 1 831 2 875 22 54 25 94 64 124 119 21 40 21 42 23 870 2 919 4
895 -61 971 -21 25 -57 50 -88 64 l-53 23 -778 1 c-428 0 -780 0 -781 -1z"/>
<path d="M5006 2218 c-95 -13 -179 -87 -201 -177 -9 -33 -12 -279 -11 -871 1
-812 2 -826 22 -870 27 -59 91 -115 151 -133 39 -11 196 -14 878 -13 l830 1
47 23 c58 29 114 92 130 146 8 30 12 272 12 871 l1 830 -29 58 c-32 65 -84
110 -150 128 -46 13 -1596 19 -1680 7z"/>
</g>
</svg>
